<svg xmlns="http://www.w3.org/2000/svg" viewBox="0 0 995.88 264.71"><defs><style>.cls-1{isolation:isolate;}.cls-2{fill:#fff;stroke:#fff;stroke-miterlimit:10;stroke-width:8px;}.cls-2,.cls-3{fill-rule:evenodd;}.cls-3{fill:#ec6538;}</style></defs><g id="形状_6" data-name="形状 6" class="cls-1"><g id="ao"><path class="cls-2" d="M259.86,705.31c.77-51.73-.28-78.66-.08-84.18H243.54V822.39l16.68.26c.08-3.5.41-31.83-.36-84.45v-7.89H324v10.52c-.79,50.87-.24,78-.78,81.82l15.93-.26V713.21H259.86ZM372.07,822.39h96.76V804H388.39V730.31h49a35.46,35.46,0,0,1-4.67,3.94c-27.11,20.11-39.35,29.49-43.05,32.9l11.56,15c2.36-2.22,18.31-13.67,50.15-38.69q16.31-13.12,18.65-15.78V711.89H372.07Zm128.52,0h16.33V622.44H500.59Zm48.08,0H565V622.44H548.67Zm46.92,0h96.77V713.21H595.59Zm16.32-92.08H676V804H611.91Zm419.25,1.75H1096v68.45h-60.53V768.09h53V751.28h-68.11v66h90.81V716.45h-80Zm110.53-14.41v99.67h89.73V717.65Zm74.59,82.86h-59.46V733.26h59.46Z" transform="translate(-239.54 -580.43)"/></g><g id="形状_6-2" data-name="形状 6"><path class="cls-3" d="M870.2,580.68c-5.4-.37-12.07-1.43-10.77,7.06,1.08,7-6.47,18.23,9.06,19.18,17.37,1.05,33.23,7.31,48,16.56,63.11,39.51,64.12,136.34,1.76,176.75-2.29,1.49-4.57,4.41-7.55,3-3.17-1.54-1.64-5.12-1.65-7.75-.14-24-1-48,.1-71.92,1.46-32.88-31.36-55.07-63.27-42.93-9,3.44-8.45.22-8.42-6.11.11-23.26,0-46.52,0-69.78,0-24.57,0-24.57-22.88-16.7C752,609.59,714.69,677,729.75,741.29c13.37,57.1,61.79,99.43,118.28,103.12,5,.32,12.24,3.5,12.37-6.48.24-18.49.37-19.24-9.91-19.71a88.44,88.44,0,0,1-32.08-7.72c-38.88-17.37-61.48-47.29-65-89.65-3.43-40.69,13.43-72.92,46.54-96.54,2.46-1.75,5.38-4.85,8.5-3.31,3.93,1.93,2.11,6.41,2.14,9.75.15,22.9.08,45.8.08,68.7h0c0,22.91.62,45.83-.26,68.7-.46,11.94,5.6,12,14.4,12.19,9.39.25,13.51-2,13-12.38a403.94,403.94,0,0,1,.34-47.2c1-13.9,8.77-20.26,21.58-20.07,13.4.2,21.16,7.43,22.24,21,.35,4.27.21,8.59.21,12.88q0,49.38,0,98.77c0,5.23-.43,10.51,7.94,8,55.8-16.71,90.21-53,99.53-111.08C1001.34,657.1,943.87,585.63,870.2,580.68Z" transform="translate(-239.54 -580.43)"/></g></g></svg>