<svg xmlns="http://www.w3.org/2000/svg" viewBox="0 0 987.61 272.71"><defs><style>.cls-1{isolation:isolate;}.cls-2{fill:#3c3736;stroke:#3c3736;stroke-width:11px;}.cls-2,.cls-4{stroke-miterlimit:10;}.cls-2,.cls-3{fill-rule:evenodd;}.cls-3{fill:#f49e00;}.cls-4{fill:none;stroke:#f49e00;stroke-width:8px;}</style></defs><g id="形状_6" data-name="形状 6" class="cls-1"><g id="ao"><path class="cls-2" d="M280,694.2c.76-54.06-.27-82.2-.08-88H263.9v210.3l16.49.27c.08-3.65.4-33.26-.36-88.24v-8.25h63.4v11c-.78,53.15-.24,81.55-.77,85.49l15.75-.27V702.44H280ZM391,816.53h95.66V797.28H407.1v-77h48.4a34.21,34.21,0,0,1-4.61,4.13c-26.8,21-38.9,30.81-42.56,34.37l11.43,15.68c2.33-2.32,18.1-14.29,49.57-40.43q16.14-13.72,18.45-16.5V701.07H391Zm127.06,0h16.14V607.6H518Zm47.53,0h16.14V607.6H565.55Zm46.38,0H707.6V702.44H611.93Zm16.14-96.22h63.39v77H628.07Zm414.47,1.84h64.12v71.52h-59.85V759.79h52.37V742.22h-67.33v69h89.77V705.84h-79.08Zm109.26-15.06V811.23h88.71V707.09Zm73.74,86.58h-58.77V723.4h58.77Z" transform="translate(-258.4 -576.43)"/></g><g id="形状_6-2" data-name="形状 6"><path class="cls-3" d="M883.2,580.68c-5.4-.37-12.07-1.43-10.77,7.06,1.08,7-6.47,18.23,9.06,19.18,17.37,1.05,33.23,7.31,48,16.56,63.11,39.51,64.12,136.34,1.76,176.75-2.29,1.49-4.57,4.41-7.55,3-3.17-1.54-1.64-5.12-1.65-7.75-.14-24-1-48,.1-71.92,1.46-32.88-31.36-55.07-63.27-42.93-9,3.44-8.45.22-8.42-6.11.11-23.26,0-46.52,0-69.78,0-24.57,0-24.57-22.88-16.7C765,609.59,727.69,677,742.75,741.29c13.37,57.1,61.79,99.43,118.28,103.12,5,.32,12.24,3.5,12.37-6.48.24-18.49.37-19.24-9.91-19.71a88.44,88.44,0,0,1-32.08-7.72c-38.88-17.37-61.48-47.29-65-89.65-3.43-40.69,13.43-72.92,46.54-96.54,2.46-1.75,5.38-4.85,8.5-3.31,3.93,1.93,2.11,6.41,2.14,9.75.15,22.9.08,45.8.08,68.7h0c0,22.91.62,45.83-.26,68.7-.46,11.94,5.6,12,14.4,12.19,9.39.25,13.51-2,13-12.38a403.94,403.94,0,0,1,.34-47.2c1-13.9,8.77-20.26,21.58-20.07,13.4.2,21.16,7.43,22.24,21,.35,4.27.21,8.59.21,12.88q0,49.38,0,98.77c0,5.23-.43,10.51,7.94,8,55.8-16.71,90.21-53,99.53-111.08C1014.34,657.1,956.87,585.63,883.2,580.68Z" transform="translate(-258.4 -576.43)"/><path class="cls-4" d="M883.2,580.68c-5.4-.37-12.07-1.43-10.77,7.06,1.08,7-6.47,18.23,9.06,19.18,17.37,1.05,33.23,7.31,48,16.56,63.11,39.51,64.12,136.34,1.76,176.75-2.29,1.49-4.57,4.41-7.55,3-3.17-1.54-1.64-5.12-1.65-7.75-.14-24-1-48,.1-71.92,1.46-32.88-31.36-55.07-63.27-42.93-9,3.44-8.45.22-8.42-6.11.11-23.26,0-46.52,0-69.78,0-24.57,0-24.57-22.88-16.7C765,609.59,727.69,677,742.75,741.29c13.37,57.1,61.79,99.43,118.28,103.12,5,.32,12.24,3.5,12.37-6.48.24-18.49.37-19.24-9.91-19.71a88.44,88.44,0,0,1-32.08-7.72c-38.88-17.37-61.48-47.29-65-89.65-3.43-40.69,13.43-72.92,46.54-96.54,2.46-1.75,5.38-4.85,8.5-3.31,3.93,1.93,2.11,6.41,2.14,9.75.15,22.9.08,45.8.08,68.7h0c0,22.91.62,45.83-.26,68.7-.46,11.94,5.6,12,14.4,12.19,9.39.25,13.51-2,13-12.38a403.94,403.94,0,0,1,.34-47.2c1-13.9,8.77-20.26,21.58-20.07,13.4.2,21.16,7.43,22.24,21,.35,4.27.21,8.59.21,12.88q0,49.38,0,98.77c0,5.23-.43,10.51,7.94,8,55.8-16.71,90.21-53,99.53-111.08C1014.34,657.1,956.87,585.63,883.2,580.68Z" transform="translate(-258.4 -576.43)"/></g></g></svg>